<svg height="1102" width="720" xmlns="http://www.w3.org/2000/svg">
<rect height="1102" fill="#555" width="720"></rect>
<text fill="#7f7" font-family="Courier New" font-size="12" xml:space="preserve">
<tspan x="10" y="26">14 megabytes installed</tspan>
<tspan x="10" y="42"></tspan>
<tspan x="10" y="58">node_modules</tspan>
<tspan x="10" y="74">└─┬ thalassa@0.4.1 </tspan>
<tspan x="10" y="90">  ├─┬ axon@1.0.0 </tspan>
<tspan x="10" y="106">  │ ├── configurable@0.0.1 </tspan>
<tspan x="10" y="122">  │ ├─┬ debug@2.6.4 </tspan>
<tspan x="10" y="138">  │ │ └── ms@0.7.3 </tspan>
<tspan x="10" y="154">  │ └── escape-regexp@0.0.1 </tspan>
<tspan x="10" y="170">  ├─┬ cli-color@0.2.3 </tspan>
<tspan x="10" y="186">  │ ├── es5-ext@0.9.2 </tspan>
<tspan x="10" y="202">  │ └─┬ memoizee@0.2.6 </tspan>
<tspan x="10" y="218">  │   ├── event-emitter@0.2.2 </tspan>
<tspan x="10" y="234">  │   └── next-tick@0.1.0 </tspan>
<tspan x="10" y="250">  ├── deep-equal@0.2.2 </tspan>
<tspan x="10" y="266">  ├─┬ hapi@1.8.3 </tspan>
<tspan x="10" y="282">  │ ├── async@0.2.10 </tspan>
<tspan x="10" y="298">  │ ├── boom@0.4.2 </tspan>
<tspan x="10" y="314">  │ ├── catbox@0.6.2 </tspan>
<tspan x="10" y="330">  │ ├── cryptiles@0.2.2 </tspan>
<tspan x="10" y="346">  │ ├─┬ hawk@1.1.2 </tspan>
<tspan x="10" y="362">  │ │ ├── boom@1.2.1 </tspan>
<tspan x="10" y="378">  │ │ ├── cryptiles@1.0.1 </tspan>
<tspan x="10" y="394">  │ │ ├── hoek@1.5.2 </tspan>
<tspan x="10" y="410">  │ │ └─┬ sntp@1.0.9 </tspan>
<tspan x="10" y="426">  │ │   └── hoek@2.16.3 </tspan>
<tspan x="10" y="442">  │ ├── hoek@0.9.1 </tspan>
<tspan x="10" y="458">  │ ├── iron@0.3.3 </tspan>
<tspan x="10" y="474">  │ ├── joi@0.3.6 </tspan>
<tspan x="10" y="490">  │ ├── lru-cache@2.3.1 </tspan>
<tspan x="10" y="506">  │ ├── mime@1.2.11 </tspan>
<tspan x="10" y="522">  │ ├─┬ multiparty@2.1.9 </tspan>
<tspan x="10" y="538">  │ │ ├─┬ readable-stream@1.0.34 </tspan>
<tspan x="10" y="554">  │ │ │ ├── core-util-is@1.0.2 </tspan>
<tspan x="10" y="570">  │ │ │ ├── inherits@2.0.3 </tspan>
<tspan x="10" y="586">  │ │ │ ├── isarray@0.0.1 </tspan>
<tspan x="10" y="602">  │ │ │ └── string_decoder@0.10.31 </tspan>
<tspan x="10" y="618">  │ │ └── stream-counter@0.1.0 </tspan>
<tspan x="10" y="634">  │ ├── negotiator@0.2.8 </tspan>
<tspan x="10" y="650">  │ ├── semver@2.0.11 </tspan>
<tspan x="10" y="666">  │ └── shot@0.4.5 </tspan>
<tspan x="10" y="682">  ├── ip@0.1.0 </tspan>
<tspan x="10" y="698">  ├── measured@0.1.6 </tspan>
<tspan x="10" y="714">  ├─┬ optimist@0.6.1 </tspan>
<tspan x="10" y="730">  │ ├── minimist@0.0.10 </tspan>
<tspan x="10" y="746">  │ └── wordwrap@0.0.3 </tspan>
<tspan x="10" y="762">  ├── redis@0.8.6 </tspan>
<tspan x="10" y="778">  ├─┬ request@2.27.0 </tspan>
<tspan x="10" y="794">  │ ├── aws-sign@0.3.0 </tspan>
<tspan x="10" y="810">  │ ├── cookie-jar@0.3.0 </tspan>
<tspan x="10" y="826">  │ ├── forever-agent@0.5.2 </tspan>
<tspan x="10" y="842">  │ ├─┬ form-data@0.1.4 </tspan>
<tspan x="10" y="858">  │ │ ├── async@0.9.2 </tspan>
<tspan x="10" y="874">  │ │ └─┬ combined-stream@0.0.7 </tspan>
<tspan x="10" y="890">  │ │   └── delayed-stream@0.0.5 </tspan>
<tspan x="10" y="906">  │ ├─┬ hawk@1.0.0 </tspan>
<tspan x="10" y="922">  │ │ └── sntp@0.2.4 </tspan>
<tspan x="10" y="938">  │ ├─┬ http-signature@0.10.1 </tspan>
<tspan x="10" y="954">  │ │ ├── asn1@0.1.11 </tspan>
<tspan x="10" y="970">  │ │ ├── assert-plus@0.1.5 </tspan>
<tspan x="10" y="986">  │ │ └── ctype@0.5.3 </tspan>
<tspan x="10" y="1002">  │ ├── json-stringify-safe@5.0.1 </tspan>
<tspan x="10" y="1018">  │ ├── node-uuid@1.4.8 </tspan>
<tspan x="10" y="1034">  │ ├── oauth-sign@0.3.0 </tspan>
<tspan x="10" y="1050">  │ ├── qs@0.6.6 </tspan>
<tspan x="10" y="1066">  │ └── tunnel-agent@0.3.0 </tspan>
<tspan x="10" y="1082">  └── thalassa-registrations@0.1.0</tspan>
</text>
</svg>
